<svg id="Ebene_1" data-name="Ebene 1" xmlns="http://www.w3.org/2000/svg" viewBox="0 0 316.04 317.7"><path d="M177.44,240.75l.45-45.45.53,0c-.37-1.93-.74-3.9-1.12-5.88l-12.15-63.9q-1.35-5.85-13.05-61.2-5.85-27-5.85-38.25Q146.25,7,162.62.45c.39-.16.78-.31,1.18-.45h-103q12.6,4.5,12.6,22.5,0,11.7-18.45,99.9L42.3,182.7Q24.75,267.75,19.35,285.3,12.15,310.95,0,317.7H56.25a161.09,161.09,0,0,1,17.55,0q-6.75-6.37-6.75-22.8,0-15.06,5.85-44.7h58.95q5,45.17,5.4,57.92l-5.85,9.58a137.19,137.19,0,0,1,29.7-1.35Q181,317.63,181,317.7h4.56Q177,297,177.44,240.75ZM81,190.8,101.25,67.5l21.6,123.3Z"/><path d="M252.14,176.4q17.55-12.6,25.65-29.25,11.7-24.75,11.7-58.5a101.75,101.75,0,0,0-16.2-55.35Q253.47,1.35,218.84.45H113.54q7.65,12.15,8.55,34.2.9,51.3.9,80.55l.9,74.7q.27,34.68,0,60.3-.15,15.93-.49,28.35-.91,25.65-5.4,39.15h67.5q-8.55-20.7-8.1-76.95l.45-45.45.53,0,8.47.42,22.5-3.15q36,88.65,36,110.25,0,11.25-5.85,14.85H316Q288.59,274.5,252.14,176.4Zm-36.45-26.55Q203.09,171,190,171a60.53,60.53,0,0,1-12.15-.9V26.55a77.41,77.41,0,0,1,16.65-2.25q17.1,0,27.45,27.45a126,126,0,0,1,8.1,43.65Q230.09,126,215.69,149.85Z"/></svg>